<svg width="206" height="33" viewBox="0 0 206 33" fill="none" xmlns="http://www.w3.org/2000/svg">
<path d="M22.832 19.232C22.832 23.984 19.352 26.36 12.392 26.36C8.048 26.36 4.94 25.508 3.068 23.804C1.196 22.1 0.26 19.604 0.26 16.316H4.904C4.904 18.596 5.492 20.168 6.668 21.032C7.868 21.896 9.812 22.328 12.5 22.328C14.468 22.328 15.908 22.088 16.82 21.608C17.732 21.128 18.188 20.372 18.188 19.34C18.188 19.052 18.152 18.788 18.08 18.548C18.008 18.284 17.876 18.044 17.684 17.828C17.492 17.612 17.3 17.42 17.108 17.252C16.94 17.06 16.676 16.88 16.316 16.712C15.956 16.52 15.656 16.364 15.416 16.244C15.176 16.124 14.816 15.98 14.336 15.812C13.856 15.644 13.484 15.524 13.22 15.452C12.956 15.356 12.536 15.224 11.96 15.056C11.384 14.864 10.964 14.732 10.7 14.66C9.62 14.3 8.78 14.012 8.18 13.796C7.58 13.58 6.848 13.292 5.984 12.932C5.144 12.572 4.496 12.224 4.04 11.888C3.608 11.528 3.152 11.096 2.672 10.592C2.216 10.088 1.892 9.524 1.7 8.9C1.508 8.252 1.412 7.544 1.412 6.776C1.412 4.688 2.216 3.08 3.824 1.952C5.432 0.823999 7.82 0.259999 10.988 0.259999C14.588 0.259999 17.288 1.112 19.088 2.816C20.888 4.496 21.788 6.608 21.788 9.152H17.144C17.144 5.912 15.092 4.292 10.988 4.292C7.7 4.292 6.056 5.156 6.056 6.884C6.056 7.724 6.416 8.384 7.136 8.864C7.856 9.344 9.284 9.932 11.42 10.628C14.684 11.708 16.808 12.488 17.792 12.968C21.128 14.576 22.808 16.664 22.832 19.232ZM34.3365 22.328C36.0885 22.328 37.4685 21.74 38.4765 20.564C39.5085 19.364 40.0245 17.564 40.0245 15.164V7.928H44.6325V26H40.0245V23.444L40.8525 20.672H39.6645C39.2805 22.376 38.5005 23.756 37.3245 24.812C36.1725 25.844 34.6605 26.36 32.7885 26.36C30.5325 26.36 28.7685 25.664 27.4965 24.272C26.2485 22.856 25.6245 20.84 25.6245 18.224V7.928H30.2685V17.504C30.2685 19.256 30.5805 20.504 31.2045 21.248C31.8285 21.968 32.8725 22.328 34.3365 22.328ZM48.2736 7.928H52.9176V9.656L52.0896 12.428H53.2776C54.3576 9.188 56.7576 7.568 60.4776 7.568C62.9976 7.568 64.9776 8.468 66.4176 10.268C67.8816 12.044 68.6136 14.288 68.6136 17C68.6136 19.688 67.8816 21.92 66.4176 23.696C64.9776 25.472 62.9976 26.36 60.4776 26.36C56.7576 26.36 54.3576 24.752 53.2776 21.536H52.0896L52.9176 24.272V32.732H48.2736V7.928ZM52.9176 17C52.9176 18.8 53.4096 20.144 54.3936 21.032C55.4016 21.896 56.7696 22.328 58.4976 22.328C60.2256 22.328 61.5696 21.896 62.5296 21.032C63.4896 20.144 63.9696 18.8 63.9696 17C63.9696 15.176 63.4896 13.82 62.5296 12.932C61.5696 12.044 60.2256 11.6 58.4976 11.6C56.7696 11.6 55.4016 12.044 54.3936 12.932C53.4096 13.82 52.9176 15.176 52.9176 17ZM71.0028 16.748C71.0028 13.916 71.8548 11.684 73.5588 10.052C75.2628 8.396 77.4828 7.568 80.2188 7.568C82.9548 7.568 85.1508 8.36 86.8068 9.944C88.4868 11.528 89.3268 13.676 89.3268 16.388V17.9H75.3948C75.4428 19.316 75.8988 20.456 76.7628 21.32C77.6508 22.16 78.9828 22.58 80.7588 22.58C83.3268 22.58 84.8508 21.608 85.3308 19.664H89.9748C89.6628 21.32 88.7268 22.856 87.1668 24.272C85.6068 25.664 83.4708 26.36 80.7588 26.36C77.5668 26.36 75.1428 25.448 73.4868 23.624C71.8308 21.8 71.0028 19.508 71.0028 16.748ZM75.3948 15.092H84.9348C84.9348 14.012 84.5388 13.124 83.7468 12.428C82.9788 11.732 81.8028 11.384 80.2188 11.384C78.6348 11.384 77.4348 11.744 76.6188 12.464C75.8028 13.16 75.3948 14.036 75.3948 15.092ZM93.0978 26V10.412C93.0978 9.5 93.3378 8.804 93.8178 8.324C94.3218 7.844 95.0298 7.616 95.9418 7.64L107.066 7.928V11.96L97.7418 11.708V26H93.0978ZM137.073 27.404C140.433 27.188 144.849 27.5 150.321 28.34V32.372C145.809 31.676 141.729 31.304 138.081 31.256C134.433 31.232 130.413 31.532 126.021 32.156L125.589 28.376C125.709 28.352 126.237 28.292 127.173 28.196C128.109 28.1 128.733 28.028 129.045 27.98C129.381 27.932 129.969 27.836 130.809 27.692C131.649 27.572 132.309 27.452 132.789 27.332C133.269 27.212 133.845 27.056 134.517 26.864C135.213 26.696 135.837 26.492 136.389 26.252C136.941 26.036 137.457 25.784 137.937 25.496L137.325 24.488C136.077 25.496 134.157 26 131.565 26C128.469 26 125.841 24.812 123.681 22.436C121.521 20.036 120.441 16.964 120.441 13.22C120.441 9.452 121.605 6.356 123.933 3.932C126.261 1.484 129.357 0.259999 133.221 0.259999C137.061 0.259999 140.133 1.472 142.437 3.896C144.765 6.296 145.929 9.428 145.929 13.292C145.929 16.82 145.089 19.748 143.409 22.076C141.729 24.404 139.617 26.18 137.073 27.404ZM127.245 19.772C128.685 21.404 130.677 22.22 133.221 22.22C135.765 22.22 137.745 21.416 139.161 19.808C140.577 18.176 141.285 16.004 141.285 13.292C141.285 10.58 140.565 8.408 139.125 6.776C137.709 5.12 135.741 4.292 133.221 4.292C130.677 4.292 128.685 5.108 127.245 6.74C125.805 8.348 125.085 10.508 125.085 13.22C125.085 15.956 125.805 18.14 127.245 19.772ZM157.594 22.328C159.346 22.328 160.726 21.74 161.734 20.564C162.766 19.364 163.282 17.564 163.282 15.164V7.928H167.89V26H163.282V23.444L164.11 20.672H162.922C162.538 22.376 161.758 23.756 160.582 24.812C159.43 25.844 157.918 26.36 156.046 26.36C153.79 26.36 152.026 25.664 150.754 24.272C149.506 22.856 148.882 20.84 148.882 18.224V7.928H153.526V17.504C153.526 19.256 153.838 20.504 154.462 21.248C155.086 21.968 156.13 22.328 157.594 22.328ZM180.166 5.012C179.614 5.492 178.87 5.732 177.934 5.732C176.998 5.732 176.254 5.492 175.702 5.012C175.15 4.508 174.874 3.836 174.874 2.996C174.874 2.156 175.15 1.496 175.702 1.016C176.254 0.511999 176.998 0.259999 177.934 0.259999C178.846 0.259999 179.59 0.511999 180.166 1.016C180.742 1.52 181.03 2.18 181.03 2.996C181.03 3.836 180.742 4.508 180.166 5.012ZM171.058 26V21.968H176.17V11.708L172.03 11.96V7.928L177.79 7.568C178.702 7.52 179.398 7.736 179.878 8.216C180.358 8.696 180.598 9.38 180.598 10.268V21.968H185.71V26H171.058ZM188.214 26V18.008L204.306 12.32V11.132L201.57 11.96H188.214V7.928H205.53V15.92L189.438 21.608V22.796L192.174 21.968H205.53V26H188.214Z" fill="black"/>
</svg>
